<svg width="134" height="24" viewBox="0 0 134 24" fill="none" xmlns="http://www.w3.org/2000/svg"><path fill-rule="evenodd" clip-rule="evenodd" d="M7.544 12.068V9.466L.014 12.14H0v2.67h.014l7.53 2.673v-2.605l-3.86-1.41 3.86-1.403v.003Zm43.616 5.286v-2.602l3.858-1.4-3.858-1.4V9.35l7.52 2.674h.017v2.673h-.018l-7.52 2.66v-.003ZM47.93 5.669l-4.422 13.558h2.625l4.42-13.558H47.93Zm-29.322 3.44a3.915 3.915 0 0 1 1.095 2.877v5.777h-2.625v-5.245a2.302 2.302 0 0 0-.549-1.615 1.859 1.859 0 0 0-1.461-.606c-1.644 0-2.468 1.09-2.468 3.266v4.2H9.976V8.28H12.6v.855a4.343 4.343 0 0 1 3.127-1.138 3.852 3.852 0 0 1 2.88 1.11Zm4.439-4.905v13.559h2.624V4.204h-2.624ZM40.51 17.763h-2.19l-2.145-5.586-2.168 5.586h-2.19l-3.679-9.499h2.806l2.068 5.68 2.132-5.68h2.05l2.132 5.698 2.068-5.698H44.2l-3.683 9.499h-.007Z" fill="#fff"/><path d="M72.947 23.997c-2.688 0-5.513-.486-7.727-1.658V1.659C67.4.519 70.224 0 72.947 0c2.724 0 5.482.487 7.659 1.659v7.934h-5.482V4.194c-.645-.26-1.43-.357-2.211-.357-.782 0-1.5.097-2.18.357v15.61c.646.26 1.395.356 2.18.356.784 0 1.53-.097 2.211-.357v-5.396h5.482v7.934c-2.145 1.14-4.97 1.626-7.659 1.659v-.003Zm17.939 0c-2.894 0-5.684-.586-7.898-1.788V1.756C85.168.586 87.96 0 90.886 0c2.927 0 5.65.553 7.83 1.756v20.453c-2.145 1.202-4.97 1.755-7.83 1.788Zm2.35-19.737c-.645-.26-1.43-.39-2.382-.39-.952 0-1.702.13-2.35.39v15.446c.646.294 1.43.424 2.35.424.92 0 1.702-.13 2.382-.424V4.26Zm15.045 10.957h-1.465v8.487h-5.548V.293h7.013c3.337 0 5.855.65 7.829 1.982v10.96c-1.939 1.302-4.495 1.982-7.829 1.982Zm2.315-10.893c-.509-.357-1.192-.52-2.35-.52h-1.499v7.902h1.499c1.123 0 1.803-.163 2.35-.487V4.324Zm17.12 19.38v-8.487h-4.084v8.487h-5.514V1.722C120.127.584 122.952 0 125.675 0c2.724 0 5.514.586 7.523 1.722v21.982h-5.482Zm0-19.64c-.579-.26-1.294-.39-2.043-.39-.75 0-1.465.13-2.044.39v7.445h4.084V4.064h.003Z" fill="#fff"/></svg>